[
  {
    "time": 5.0,
    "type": "note_on",
    "channel": 1,
    "note": 60,
    "velocity": 127,
    "description": "Relay 1 ON"
  },
  {
    "time": 7.0,
    "type": "note_off",
    "channel": 1,
    "note": 60,
    "velocity": 0,
    "description": "Relay 1 OFF"
  },
  {
    "time": 10.0,
    "type": "note_on",
    "channel": 2,
    "note": 60,
    "velocity": 127,
    "description": "Relay 2 ON"
  },
  {
    "time": 12.0,
    "type": "note_off",
    "channel": 2,
    "note": 60,
    "velocity": 0,
    "description": "Relay 2 OFF"
  },
  {
    "time": 15.0,
    "type": "note_on",
    "channel": 3,
    "note": 60,
    "velocity": 127,
    "description": "Relay 3 ON"
  },
  {
    "time": 17.0,
    "type": "note_off",
    "channel": 3,
    "note": 60,
    "velocity": 0,
    "description": "Relay 3 OFF"
  },
  {
    "time": 20.0,
    "type": "note_on",
    "channel": 4,
    "note": 60,
    "velocity": 127,
    "description": "Relay 4 ON"
  },
  {
    "time": 22.0,
    "type": "note_off",
    "channel": 4,
    "note": 60,
    "velocity": 0,
    "description": "Relay 4 OFF"
  },
  {
    "time": 25.0,
    "type": "note_on",
    "channel": 5,
    "note": 60,
    "velocity": 127,
    "description": "Relay 5 ON"
  },
  {
    "time": 25.5,
    "type": "note_off",
    "channel": 5,
    "note": 60,
    "velocity": 0,
    "description": "Relay 5 OFF"
  },
  {
    "time": 30.0,
    "type": "note_on",
    "channel": 1,
    "note": 60,
    "velocity": 127,
    "description": "Relay 1 ON"
  },
  {
    "time": 30.0,
    "type": "note_on",
    "channel": 3,
    "note": 60,
    "velocity": 127,
    "description": "Relay 3 ON"
  },
  {
    "time": 30.0,
    "type": "note_on",
    "channel": 5,
    "note": 60,
    "velocity": 127,
    "description": "Relay 5 ON"
  },
  {
    "time": 31.0,
    "type": "note_off",
    "channel": 1,
    "note": 60,
    "velocity": 0,
    "description": "Relay 1 OFF"
  },
  {
    "time": 32.0,
    "type": "note_off",
    "channel": 3,
    "note": 60,
    "velocity": 0,
    "description": "Relay 3 OFF"
  },
  {
    "time": 33.0,
    "type": "note_off",
    "channel": 5,
    "note": 60,
    "velocity": 0,
    "description": "Relay 5 OFF"
  },
  {
    "time": 35.0,
    "type": "note_on",
    "channel": 1,
    "note": 60,
    "velocity": 127,
    "description": "Relay 1 ON"
  },
  {
    "time": 35.2,
    "type": "note_off",
    "channel": 1,
    "note": 60,
    "velocity": 0,
    "description": "Relay 1 OFF"
  },
  {
    "time": 35.5,
    "type": "note_on",
    "channel": 2,
    "note": 60,
    "velocity": 127,
    "description": "Relay 2 ON"
  },
  {
    "time": 35.7,
    "type": "note_off",
    "channel": 2,
    "note": 60,
    "velocity": 0,
    "description": "Relay 2 OFF"
  },
  {
    "time": 36.0,
    "type": "note_on",
    "channel": 3,
    "note": 60,
    "velocity": 127,
    "description": "Relay 3 ON"
  },
  {
    "time": 36.2,
    "type": "note_off",
    "channel": 3,
    "note": 60,
    "velocity": 0,
    "description": "Relay 3 OFF"
  },
  {
    "time": 36.5,
    "type": "note_on",
    "channel": 4,
    "note": 60,
    "velocity": 127,
    "description": "Relay 4 ON"
  },
  {
    "time": 36.7,
    "type": "note_off",
    "channel": 4,
    "note": 60,
    "velocity": 0,
    "description": "Relay 4 OFF"
  },
  {
    "time": 37.0,
    "type": "note_on",
    "channel": 1,
    "note": 60,
    "velocity": 127,
    "description": "Relay 1 ON"
  },
  {
    "time": 37.2,
    "type": "note_off",
    "channel": 1,
    "note": 60,
    "velocity": 0,
    "description": "Relay 1 OFF"
  },
  {
    "time": 37.5,
    "type": "note_on",
    "channel": 2,
    "note": 60,
    "velocity": 127,
    "description": "Relay 2 ON"
  },
  {
    "time": 37.7,
    "type": "note_off",
    "channel": 2,
    "note": 60,
    "velocity": 0,
    "description": "Relay 2 OFF"
  }
]